<svg xmlns="http://www.w3.org/2000/svg" version="1.1" xmlns:xlink="http://www.w3.org/1999/xlink" xmlns:svgjs="http://svgjs.dev/svgjs" viewBox="0 0 800 800" opacity="1"><defs><linearGradient x1="50%" y1="0%" x2="50%" y2="100%" id="vvvortex-grad"><stop stop-color="#ffab2e" stop-opacity="1" offset="0%"></stop><stop stop-color="black" stop-opacity="1" offset="100%"></stop></linearGradient></defs><g stroke="url(#vvvortex-grad)" fill="none" stroke-linecap="square"><circle r="478.5" cx="400" cy="400" stroke-width="15" stroke-dasharray="40 14" stroke-dashoffset="25" transform="rotate(309, 400, 400)" opacity="0.05"></circle><circle r="462" cx="400" cy="400" stroke-width="15" stroke-dasharray="22 39" stroke-dashoffset="25" transform="rotate(131, 400, 400)" opacity="0.08"></circle><circle r="445.5" cx="400" cy="400" stroke-width="15" stroke-dasharray="39 51" stroke-dashoffset="25" transform="rotate(236, 400, 400)" opacity="0.12"></circle><circle r="429" cx="400" cy="400" stroke-width="14" stroke-dasharray="19 33" stroke-dashoffset="25" transform="rotate(149, 400, 400)" opacity="0.15"></circle><circle r="412.5" cx="400" cy="400" stroke-width="14" stroke-dasharray="51 34" stroke-dashoffset="25" transform="rotate(309, 400, 400)" opacity="0.19"></circle><circle r="396" cx="400" cy="400" stroke-width="14" stroke-dasharray="38 41" stroke-dashoffset="25" transform="rotate(196, 400, 400)" opacity="0.22"></circle><circle r="379.5" cx="400" cy="400" stroke-width="14" stroke-dasharray="17 30" stroke-dashoffset="25" transform="rotate(124, 400, 400)" opacity="0.25"></circle><circle r="363" cx="400" cy="400" stroke-width="14" stroke-dasharray="14 39" stroke-dashoffset="25" transform="rotate(97, 400, 400)" opacity="0.29"></circle><circle r="346.5" cx="400" cy="400" stroke-width="13" stroke-dasharray="11 51" stroke-dashoffset="25" transform="rotate(168, 400, 400)" opacity="0.32"></circle><circle r="330" cx="400" cy="400" stroke-width="13" stroke-dasharray="19 54" stroke-dashoffset="25" transform="rotate(350, 400, 400)" opacity="0.36"></circle><circle r="313.5" cx="400" cy="400" stroke-width="13" stroke-dasharray="40 32" stroke-dashoffset="25" transform="rotate(354, 400, 400)" opacity="0.39"></circle><circle r="297" cx="400" cy="400" stroke-width="13" stroke-dasharray="46 13" stroke-dashoffset="25" transform="rotate(160, 400, 400)" opacity="0.42"></circle><circle r="280.5" cx="400" cy="400" stroke-width="12" stroke-dasharray="20 18" stroke-dashoffset="25" transform="rotate(59, 400, 400)" opacity="0.46"></circle><circle r="264" cx="400" cy="400" stroke-width="12" stroke-dasharray="22 41" stroke-dashoffset="25" transform="rotate(353, 400, 400)" opacity="0.49"></circle><circle r="247.5" cx="400" cy="400" stroke-width="12" stroke-dasharray="42 12" stroke-dashoffset="25" transform="rotate(118, 400, 400)" opacity="0.53"></circle><circle r="231" cx="400" cy="400" stroke-width="12" stroke-dasharray="24 53" stroke-dashoffset="25" transform="rotate(73, 400, 400)" opacity="0.56"></circle><circle r="214.5" cx="400" cy="400" stroke-width="12" stroke-dasharray="10 43" stroke-dashoffset="25" transform="rotate(156, 400, 400)" opacity="0.59"></circle><circle r="198" cx="400" cy="400" stroke-width="11" stroke-dasharray="14 23" stroke-dashoffset="25" transform="rotate(205, 400, 400)" opacity="0.63"></circle><circle r="181.5" cx="400" cy="400" stroke-width="11" stroke-dasharray="55 51" stroke-dashoffset="25" transform="rotate(24, 400, 400)" opacity="0.66"></circle><circle r="165" cx="400" cy="400" stroke-width="11" stroke-dasharray="39 55" stroke-dashoffset="25" transform="rotate(206, 400, 400)" opacity="0.69"></circle><circle r="148.5" cx="400" cy="400" stroke-width="11" stroke-dasharray="46 11" stroke-dashoffset="25" transform="rotate(216, 400, 400)" opacity="0.73"></circle><circle r="132" cx="400" cy="400" stroke-width="11" stroke-dasharray="53 42" stroke-dashoffset="25" transform="rotate(174, 400, 400)" opacity="0.76"></circle><circle r="115.5" cx="400" cy="400" stroke-width="10" stroke-dasharray="15 37" stroke-dashoffset="25" transform="rotate(227, 400, 400)" opacity="0.80"></circle><circle r="99" cx="400" cy="400" stroke-width="10" stroke-dasharray="50 31" stroke-dashoffset="25" transform="rotate(75, 400, 400)" opacity="0.83"></circle><circle r="82.5" cx="400" cy="400" stroke-width="10" stroke-dasharray="11 49" stroke-dashoffset="25" transform="rotate(233, 400, 400)" opacity="0.86"></circle><circle r="66" cx="400" cy="400" stroke-width="10" stroke-dasharray="23 10" stroke-dashoffset="25" transform="rotate(344, 400, 400)" opacity="0.90"></circle><circle r="49.5" cx="400" cy="400" stroke-width="9" stroke-dasharray="11 17" stroke-dashoffset="25" transform="rotate(104, 400, 400)" opacity="0.93"></circle><circle r="33" cx="400" cy="400" stroke-width="9" stroke-dasharray="16 31" stroke-dashoffset="25" transform="rotate(121, 400, 400)" opacity="0.97"></circle><circle r="16.5" cx="400" cy="400" stroke-width="9" stroke-dasharray="37 37" stroke-dashoffset="25" transform="rotate(269, 400, 400)" opacity="1.00"></circle></g></svg>